# xmcd
# 
# Track frame offsets:
#     150
#     18223
#     37568
#     50362
#     72248
#     87893
#     105836
#     123175
#     138892
#     155329
#     172417
#     190498
#     208774
#     224829
#     245672
#     258460
#     270534
#     291061
#     312363
#     325921
# 
# Disc length: 4682
# 
# Revision: 0
# Processed by: cddbd v1.5.2PL0 Copyright (c) Steve Scherf et al.
# Submitted via: fre:ac v1.0.31
# 
DISCID=22124814
DTITLE=Various Artist - Najlepsze Hity Dla Ciebie Polskie Vol.2 CD 3
DYEAR=2015
DGENRE=Pop
TTITLE0=Lady Pank - Mniej niz zero
TTITLE1=2+1 - Ojciec kraju
TTITLE2=Shakin Dudi - Au Sza La La La
TTITLE3=Ryszard Rynkowski - Wypijmy za bledy
TTITLE4=Anna Jurksztowicz - Stan pogody
TTITLE5=Ich Troje - A wszystko to...
TTITLE6=Virgin - Szansa
TTITLE7=Elektryczne Gitary - Co Ty tutaj robisz
TTITLE8=Gabriel Fleszar - Kropla deszczu
TTITLE9=Big Day - W dzien goracego lata
TTITLE10=Sidney Polak - Otwieram wino
TTITLE11=Natalia Kukulska - Piosenka swiatloczula
TTITLE12=Rotaty - Na jednej z dzikich plaz
TTITLE13=Urszula - Niebo dla Ciebie
TTITLE14=Big Cyc - Rudy sie zeni
TTITLE15=Hey - Teksanski
TTITLE16=Perfect - Autobiografia
TTITLE17=Budka Suflera - Za ostatni grosz
TTITLE18=Tilt - Mowie Ci, ze
TTITLE19=Daab - Ogrodu serce
EXTD=
EXTT0=
EXTT1=
EXTT2=
EXTT3=
EXTT4=
EXTT5=
EXTT6=
EXTT7=
EXTT8=
EXTT9=
EXTT10=
EXTT11=
EXTT12=
EXTT13=
EXTT14=
EXTT15=
EXTT16=
EXTT17=
EXTT18=
EXTT19=
PLAYORDER=
